<svg width="100" height="100" viewBox="0 0 100 100" fill="none" xmlns="http://www.w3.org/2000/svg">
<rect width="100" height="100" rx="10" fill="#385794"/>
<path d="M31.6062 27.4545V82H20.0739V38.4009H19.7543L7.26318 46.2312V36.0039L20.7664 27.4545H31.6062ZM93.0165 46.5508H81.351C81.1379 45.0415 80.7029 43.701 80.0459 42.5291C79.389 41.3395 78.5456 40.3274 77.5158 39.4929C76.4859 38.6584 75.2963 38.0192 73.9469 37.5753C72.6152 37.1314 71.1681 36.9094 69.6056 36.9094C66.7824 36.9094 64.3233 37.6108 62.2281 39.0135C60.1329 40.3984 58.5083 42.4226 57.3542 45.0859C56.2001 47.7315 55.623 50.9453 55.623 54.7273C55.623 58.6158 56.2001 61.8828 57.3542 64.5284C58.5261 67.174 60.1596 69.1715 62.2547 70.521C64.3499 71.8704 66.7736 72.5451 69.5257 72.5451C71.0704 72.5451 72.4998 72.3409 73.8137 71.9325C75.1454 71.5241 76.3261 70.9293 77.356 70.1481C78.3858 69.3491 79.2381 68.3814 79.9128 67.245C80.6052 66.1087 81.0847 64.8125 81.351 63.3565L93.0165 63.4098C92.7146 65.9134 91.96 68.3281 90.7526 70.6541C89.563 72.9624 87.9561 75.0309 85.932 76.8597C83.9256 78.6708 81.5285 80.109 78.7409 81.1744C75.971 82.2219 72.8371 82.7457 69.3393 82.7457C64.4742 82.7457 60.1241 81.6449 56.2888 79.4432C52.4714 77.2415 49.4529 74.0543 47.2334 69.8817C45.0317 65.7092 43.9309 60.6577 43.9309 54.7273C43.9309 48.7791 45.0495 43.7188 47.2867 39.5462C49.5239 35.3736 52.5601 32.1953 56.3954 30.0114C60.2306 27.8097 64.5452 26.7088 69.3393 26.7088C72.4998 26.7088 75.4295 27.1527 78.1283 28.0405C80.8449 28.9283 83.2508 30.2244 85.346 31.929C87.4412 33.6158 89.1457 35.6843 90.4597 38.1346C91.7913 40.5849 92.6436 43.3903 93.0165 46.5508Z" fill="white"/>
</svg>
